<svg version="1.1" xmlns="http://www.w3.org/2000/svg" height="20px" width="40px" viewBox="0 0 1890 1024"><path d="M368.64 579.780923h365.489231v49.624615H368.64zM489.156923 215.827692h124.455385v65.378462h-124.455385zM368.64 494.670769h365.489231v49.624616H368.64zM368.64 750.710154h365.489231v51.948308H368.64zM368.64 665.6h365.489231v49.624615H368.64zM320.590769 215.827692h117.366154v65.378462H320.590769z" fill="#D92315"></path><path d="M1652.932923 0H237.528615C106.377846 0 0 105.826462 0 236.307692v551.384616c0 130.481231 106.377846 236.307692 237.528615 236.307692h1415.404308C1784.123077 1024 1890.461538 918.173538 1890.461538 787.692308V236.307692c0-130.481231-106.338462-236.307692-237.528615-236.307692zM1290.24 178.018462h398.572308v55.138461h-174.08a944.167385 944.167385 0 0 1-10.24 82.707692h158.326154v373.366154H1606.892308V368.64h-238.67077v322.166154h-55.138461V315.864615h133.907692c4.174769-24.142769 7.601231-51.712 10.24-82.707692h-166.990769v-55.138461z m-385.969231 670.326153H199.286154v-45.686153h114.215384v-347.372308h191.409231l4.726154-22.843077 3.938462-22.055385H213.464615v-43.323077h306.412308l4.726154-45.686153H266.24V174.08h570.289231v147.298462h-255.212308l-4.726154 45.686153h313.501539v43.323077h-319.803077l-3.938462 22.843077-4.726154 22.055385h228.43077v347.372308h114.215384v45.686153z m263.876923-62.227692c0 46.749538-22.567385 70.104615-67.741538 70.104615h-89.009231l-12.563692-53.563076c37.809231 2.126769 65.063385 3.150769 81.92 3.150769 19.416615 0 29.105231-11.264 29.105231-33.870769V233.156923H988.553846v-55.138461h274.116923v55.138461h-94.523077v552.96z m344.221539-230.793846c-2.638769 84.558769-23.394462 151.000615-62.227693 199.325538-38.360615 45.686154-101.376 81.92-189.085538 108.701539L1230.375385 815.261538c84.007385-24.182154 142.572308-56.438154 175.655384-96.886153 30.956308-41.472 47.773538-95.862154 50.412308-163.091693v-140.20923h55.926154V555.323077z m141.784615 311.926154c-35.721846-43.559385-82.707692-89.245538-140.996923-137.019077l38.596923-36.233846c58.801231 45.646769 106.574769 89.521231 143.36 131.544615L1654.153846 867.249231z" fill="#D92315"></path><path d="M665.6 215.827692h117.326769v65.378462H665.6z" fill="#D92315"></path></svg>