<svg width="50" height="50" xmlns="http://www.w3.org/2000/svg" xmlns:xlink="http://www.w3.org/1999/xlink" xml:space="preserve" overflow="hidden"><defs><clipPath id="clip0"><rect x="137" y="395" width="50" height="50"/></clipPath></defs><g clip-path="url(#clip0)" transform="translate(-137 -395)"><path d="M180.246 431.492C179.44 432.298 177.827 433.508 175.004 433.508 173.794 433.508 172.383 433.508 171.778 433.508 170.972 433.508 164.923 433.508 157.665 433.508 162.907 428.468 167.343 424.234 167.746 423.831 168.149 423.427 169.157 422.419 170.165 421.613 172.181 419.798 173.794 419.597 175.206 419.597 177.222 419.597 178.835 420.403 180.246 421.613 183.069 424.234 183.069 428.871 180.246 431.492M183.673 418.387C181.657 416.169 178.633 414.758 175.407 414.758 172.585 414.758 170.165 415.766 167.948 417.379 167.141 418.185 165.931 418.992 164.923 420.202 164.117 421.008 146.778 437.944 146.778 437.944 147.786 438.145 148.996 438.145 150.004 438.145 151.012 438.145 171.073 438.145 171.879 438.145 173.492 438.145 174.702 438.145 175.911 437.944 178.532 437.742 181.153 436.734 183.371 434.718 188.109 430.282 188.109 422.823 183.673 418.387Z" fill="#00A3FF"/><path d="M155.548 417.177C153.331 415.565 151.113 414.758 148.492 414.758 145.266 414.758 142.242 416.169 140.226 418.387 135.891 423.024 135.891 430.282 140.427 434.919 142.444 436.734 144.46 437.742 146.879 437.944L151.516 433.508C150.71 433.508 149.702 433.508 148.895 433.508 146.274 433.306 144.661 432.5 143.653 431.492 140.831 428.669 140.831 424.234 143.452 421.411 144.863 420 146.476 419.395 148.492 419.395 149.702 419.395 151.516 419.597 153.331 421.411 154.137 422.218 156.355 423.831 157.161 424.637L157.363 424.637 160.387 421.613 160.387 421.411C158.976 420 156.758 418.185 155.548 417.177" fill="#00C8DC"/><path d="M176.718 412.137C174.5 406.089 168.653 401.855 162 401.855 154.137 401.855 147.887 407.702 146.677 414.96 147.282 414.96 147.887 414.758 148.694 414.758 149.5 414.758 150.508 414.96 151.315 414.96L151.315 414.96C152.323 409.919 156.758 406.29 162 406.29 166.435 406.29 170.266 408.911 172.081 412.742 172.081 412.742 172.282 412.944 172.282 412.742 173.694 412.54 175.306 412.137 176.718 412.137 176.718 412.339 176.718 412.339 176.718 412.137" fill="#006EFF"/></g></svg>